# xmcd
#
# Track frame offsets: 
#        150
#        14918
#        32072
#        49828
#        69539
#        84634
#        102464
#        127022
#        144345
#        159415
#        178699
#        194186
#
# Disc length: 2805 seconds
#
# Revision: 0
# Processed by: cddbd v1.5.2PL0 Copyright (c) Steve Scherf et al.
# Submitted via: ExactAudioCopy v1.0b1
#
DISCID=b30af30c
DTITLE=Gary Allan - Set You Free
DYEAR=2013
DGENRE=Country
TTITLE0=Tough Goodbye
TTITLE1=Every Storm (Runs Out of Rain)
TTITLE2=Bones
TTITLE3=It Ain't the Whiskey
TTITLE4=Sand in My Soul
TTITLE5=You Without Me
TTITLE6=One More Time
TTITLE7=Hungover Heart
TTITLE8=No Worries
TTITLE9=Drop
TTITLE10=Pieces
TTITLE11=Good as New
EXTD=
EXTT0=
EXTT1=
EXTT2=
EXTT3=
EXTT4=
EXTT5=
EXTT6=
EXTT7=
EXTT8=
EXTT9=
EXTT10=
EXTT11=
PLAYORDER=
